<svg width="54" height="27" viewBox="0 0 54 27" fill="none" xmlns="http://www.w3.org/2000/svg">
<path d="M15.3465 24.469C15.5091 21.7843 16.8844 17.146 21.4514 14.6483C21.974 15.0739 22.6724 15.5442 23.487 15.9343C24.639 16.4861 26.093 16.9105 27.6534 16.7545C30.0456 16.5152 32.0913 15.4493 33.229 14.6586C34.2608 15.3474 35.6377 16.5159 36.8014 18.1023C38.0506 19.8051 39.0297 21.9533 39.115 24.4896C34.9899 25.0966 25.5215 25.7786 15.3465 24.469Z" stroke="#F9A828" stroke-width="2"/>
<circle cx="27.2247" cy="7.49666" r="5.60897" stroke="#F9A828" stroke-width="2"/>
<path d="M38.2061 14.3332C38.357 14.2287 38.5536 14.1069 38.8082 13.9703C39.2236 14.2898 39.7565 14.6314 40.3691 14.9181C41.305 15.3561 42.4948 15.6973 43.7777 15.5719C45.6412 15.3899 47.244 14.6046 48.1889 13.9843C48.9773 14.5147 49.9988 15.3798 50.8672 16.5365C51.8053 17.7861 52.5399 19.3403 52.6493 21.1623C50.1101 21.5319 47.136 21.6614 42.0325 21.6747C41.7843 19.8894 40.8711 16.8768 38.2061 14.3332Z" stroke="#F9A828" stroke-width="2"/>
<circle cx="43.4179" cy="7.82831" r="3.95673" stroke="#F9A828" stroke-width="2"/>
<path d="M16.245 14.3347C16.0942 14.2301 15.8976 14.1083 15.643 13.9718C15.2276 14.2913 14.6947 14.6329 14.0821 14.9196C13.1461 15.3576 11.9564 15.6988 10.6735 15.5734C8.80995 15.3913 7.2072 14.6061 6.26223 13.9857C5.47386 14.5161 4.45241 15.3813 3.58402 16.5379C2.64584 17.7876 1.91122 19.3417 1.80187 21.1638C4.34105 21.5334 7.31522 21.6629 12.4187 21.6761C12.6668 19.8909 13.58 16.8782 16.245 14.3347Z" stroke="#F9A828" stroke-width="2"/>
<circle cx="4.95673" cy="4.95673" r="3.95673" transform="matrix(-1 0 0 1 15.99 2.86963)" stroke="#F9A828" stroke-width="2"/>
</svg>
