<svg width="34" height="32" viewBox="0 0 34 32" fill="none" xmlns="http://www.w3.org/2000/svg">
<mask id="path-1-inside-1_3777_738" fill="white">
<path d="M19.3232 9.95298C19.3232 9.95298 21.1455 8.65117 22.4471 7.87058C23.7487 7.08999 28.1742 14.6393 28.1742 14.6393L33.9014 19.3252L33.1204 21.1475L29.2155 19.3252L31.5585 22.9692L22.1868 27.1344L24.5297 28.1757L22.9678 31.8202L17.2406 29.217L11.7738 31.5599L10.2119 28.1757L12.0341 27.1344L3.44345 22.9692L5.52604 19.8459L1.62118 21.1475L0.84021 18.8045L7.34831 14.8997C7.34831 14.8997 11.5135 7.08924 12.8151 7.87058C14.1167 8.65192 15.939 9.95298 15.939 9.95298H19.3232Z"/>
</mask>
<path d="M29.2155 19.3252L29.6215 20.2391L31.6283 19.3477L29.6384 18.419L29.2155 19.3252ZM25.3107 17.503L24.4283 17.9735L24.5853 18.268L24.8878 18.4091L25.3107 17.503ZM23.2281 13.5975L24.1105 13.127C23.926 12.7811 23.5564 12.5748 23.1652 12.5995C22.7739 12.6242 22.4332 12.8752 22.2936 13.2415L23.2281 13.5975ZM21.1455 19.0643L20.211 18.7083L19.8011 19.7843L20.9239 20.0395L21.1455 19.0643ZM26.8726 20.3659L26.651 21.3411L26.975 21.4147L27.2786 21.2798L26.8726 20.3659ZM5.52604 19.8459L5.03578 18.9743L2.75772 20.2557L5.30934 20.8221L5.52604 19.8459ZM7.86896 20.3659L7.65226 21.3422L7.87154 21.3909L8.09058 21.3411L7.86896 20.3659ZM13.5961 19.0643L13.8177 20.0395L14.8355 19.8081L14.5609 18.8012L13.5961 19.0643ZM12.0341 13.3372L12.9989 13.0741C12.8922 12.6827 12.5595 12.3945 12.1569 12.3448C11.7542 12.295 11.3614 12.4934 11.1625 12.847L12.0341 13.3372ZM9.69123 17.503L10.1815 18.3745L10.4256 18.2372L10.5628 17.9932L9.69123 17.503ZM29.6384 18.419L25.7336 16.5968L24.8878 18.4091L28.7927 20.2314L29.6384 18.419ZM26.1931 17.0324L24.1105 13.127L22.3457 14.0681L24.4283 17.9735L26.1931 17.0324ZM22.2936 13.2415L20.211 18.7083L22.08 19.4203L24.1626 13.9535L22.2936 13.2415ZM20.9239 20.0395L26.651 21.3411L27.0942 19.3908L21.3671 18.0892L20.9239 20.0395ZM27.2786 21.2798L29.6215 20.2391L28.8096 18.4113L26.4667 19.452L27.2786 21.2798ZM5.30934 20.8221L7.65226 21.3422L8.08566 19.3897L5.74275 18.8696L5.30934 20.8221ZM8.09058 21.3411L13.8177 20.0395L13.3745 18.0892L7.64734 19.3908L8.09058 21.3411ZM14.5609 18.8012L12.9989 13.0741L11.0694 13.6003L12.6313 19.3274L14.5609 18.8012ZM11.1625 12.847L8.81962 17.0127L10.5628 17.9932L12.9058 13.8274L11.1625 12.847ZM9.20097 16.6314L5.03578 18.9743L6.0163 20.7174L10.1815 18.3745L9.20097 16.6314ZM19.3232 9.95298V11.953H19.9642L20.4858 11.5804L19.3232 9.95298ZM22.4471 7.87058L21.4185 6.15537L22.4471 7.87058ZM28.1742 14.6393L26.4488 15.6508L26.6302 15.9602L26.9078 16.1872L28.1742 14.6393ZM33.9014 19.3252L35.7397 20.1131C36.0907 19.294 35.8575 18.3416 35.1679 17.7773L33.9014 19.3252ZM33.1204 21.1475L32.2746 22.9599C32.7653 23.1888 33.3278 23.2091 33.8336 23.016C34.3395 22.8229 34.7454 22.433 34.9587 21.9353L33.1204 21.1475ZM29.2155 19.3252L30.0613 17.5129L23.7912 14.5868L27.5333 20.4069L29.2155 19.3252ZM31.5585 22.9692L32.3707 24.7968C32.9041 24.5597 33.3074 24.1015 33.4746 23.5422C33.6418 22.983 33.5564 22.3785 33.2407 21.8876L31.5585 22.9692ZM22.1868 27.1344L21.3745 25.3067L17.2624 27.1344L21.3745 28.962L22.1868 27.1344ZM24.5297 28.1757L26.368 28.9635L27.1454 27.1496L25.342 26.348L24.5297 28.1757ZM22.9678 31.8202L22.1402 33.6409L24.0009 34.4867L24.806 32.608L22.9678 31.8202ZM17.2406 29.217L18.0682 27.3962L17.2644 27.0308L16.4528 27.3787L17.2406 29.217ZM11.7738 31.5599L9.9579 32.398L10.7733 34.1646L12.5617 33.3982L11.7738 31.5599ZM10.2119 28.1757L9.2196 26.4392L7.62756 27.3489L8.39596 29.0138L10.2119 28.1757ZM12.0341 27.1344L13.0264 28.8709L16.3192 26.9893L12.9067 25.3347L12.0341 27.1344ZM3.44345 22.9692L1.77944 21.8596C1.45882 22.3405 1.36188 22.9365 1.5136 23.4942C1.66532 24.0519 2.05086 24.5167 2.5709 24.7688L3.44345 22.9692ZM5.52604 19.8459L7.19005 20.9554L10.4243 16.1049L4.89359 17.9485L5.52604 19.8459ZM1.62118 21.1475L-0.276188 21.7799C-0.108453 22.2831 0.252315 22.6991 0.72675 22.9363C1.20118 23.1736 1.75042 23.2126 2.25364 23.0449L1.62118 21.1475ZM0.84021 18.8045L-0.188776 17.0895C-0.992587 17.5718 -1.35359 18.5477 -1.05716 19.437L0.84021 18.8045ZM7.34831 14.8997L8.3773 16.6147L8.85236 16.3296L9.11305 15.8408L7.34831 14.8997ZM12.8151 7.87058L13.8445 6.15581L12.8151 7.87058ZM15.939 9.95298L14.7769 11.5807L15.2983 11.953H15.939V9.95298ZM19.3232 9.95298C20.4858 11.5804 20.4858 11.5804 20.4857 11.5804C20.4857 11.5804 20.4857 11.5804 20.4857 11.5804C20.4857 11.5804 20.4857 11.5804 20.4858 11.5804C20.4859 11.5803 20.4861 11.5801 20.4864 11.5799C20.4871 11.5795 20.4882 11.5787 20.4897 11.5776C20.4927 11.5755 20.4974 11.5721 20.5037 11.5676C20.5164 11.5586 20.5355 11.545 20.5606 11.5272C20.6108 11.4916 20.6847 11.4394 20.7776 11.3742C20.9637 11.2435 21.2254 11.0611 21.5264 10.8551C22.1369 10.4374 22.8779 9.94431 23.4757 9.58579L21.4185 6.15537C20.7147 6.57744 19.8938 7.12552 19.2677 7.55389C18.9505 7.77092 18.6752 7.96278 18.479 8.1006C18.3807 8.16957 18.302 8.22518 18.2475 8.26384C18.2202 8.28318 18.199 8.29829 18.1843 8.30873C18.177 8.31395 18.1713 8.318 18.1673 8.32083C18.1653 8.32224 18.1638 8.32335 18.1627 8.32415C18.1621 8.32455 18.1616 8.32487 18.1613 8.32511C18.1611 8.32523 18.161 8.32533 18.1609 8.32541C18.1608 8.32545 18.1608 8.32549 18.1607 8.32552C18.1607 8.32556 18.1606 8.32559 19.3232 9.95298ZM23.4757 9.58579C23.1124 9.80367 22.7442 9.83436 22.4887 9.80384C22.2631 9.77689 22.1324 9.70562 22.1216 9.69978C22.1108 9.69399 22.2273 9.76346 22.4768 10.013C22.9522 10.4884 23.5491 11.2472 24.1673 12.1191C24.7716 12.9714 25.3432 13.8556 25.767 14.5328C25.9779 14.8699 26.15 15.1522 26.2688 15.3492C26.3282 15.4476 26.3741 15.5246 26.4047 15.5761C26.42 15.6019 26.4315 15.6214 26.4389 15.634C26.4427 15.6403 26.4454 15.6449 26.447 15.6477C26.4479 15.6491 26.4484 15.6501 26.4487 15.6506C26.4489 15.6508 26.449 15.651 26.449 15.651C26.449 15.651 26.449 15.651 26.449 15.651C26.4489 15.6509 26.4488 15.6508 28.1742 14.6393C29.8996 13.6279 29.8995 13.6277 29.8994 13.6275C29.8993 13.6274 29.8992 13.6272 29.8991 13.627C29.8988 13.6265 29.8985 13.626 29.8981 13.6253C29.8974 13.624 29.8963 13.6223 29.895 13.6201C29.8924 13.6156 29.8888 13.6094 29.8841 13.6014C29.8747 13.5855 29.8612 13.5627 29.8437 13.5333C29.8089 13.4747 29.7585 13.3902 29.6943 13.2837C29.5659 13.0709 29.3822 12.7696 29.1579 12.4111C28.7111 11.6972 28.095 10.7429 27.4303 9.8054C26.7794 8.88749 26.0259 7.9053 25.3054 7.18473C24.957 6.83633 24.5142 6.44407 24.0123 6.17484C23.5794 5.94265 22.5122 5.49949 21.4185 6.15537L23.4757 9.58579ZM26.9078 16.1872L32.6349 20.8731L35.1679 17.7773L29.4407 13.0914L26.9078 16.1872ZM32.0631 18.5374L31.2821 20.3596L34.9587 21.9353L35.7397 20.1131L32.0631 18.5374ZM33.9662 19.3351L30.0613 17.5129L28.3698 21.1376L32.2746 22.9599L33.9662 19.3351ZM27.5333 20.4069L29.8762 24.0508L33.2407 21.8876L30.8978 18.2436L27.5333 20.4069ZM30.7462 21.1416L21.3745 25.3067L22.9991 28.962L32.3707 24.7968L30.7462 21.1416ZM21.3745 28.962L23.7174 30.0033L25.342 26.348L22.9991 25.3067L21.3745 28.962ZM22.6914 27.3878L21.1295 31.0324L24.806 32.608L26.368 28.9635L22.6914 27.3878ZM23.7954 29.9995L18.0682 27.3962L16.413 31.0377L22.1402 33.6409L23.7954 29.9995ZM16.4528 27.3787L10.986 29.7216L12.5617 33.3982L18.0285 31.0553L16.4528 27.3787ZM13.5897 30.7218L12.0278 27.3376L8.39596 29.0138L9.9579 32.398L13.5897 30.7218ZM11.2042 29.9122L13.0264 28.8709L11.0419 25.3979L9.2196 26.4392L11.2042 29.9122ZM12.9067 25.3347L4.316 21.1696L2.5709 24.7688L11.1616 28.934L12.9067 25.3347ZM5.10746 24.0787L7.19005 20.9554L3.86204 18.7363L1.77944 21.8596L5.10746 24.0787ZM3.51855 20.515L2.73758 18.1721L-1.05716 19.437L-0.276188 21.7799L3.51855 20.515ZM1.8692 20.5195L8.3773 16.6147L6.31933 13.1847L-0.188776 17.0895L1.8692 20.5195ZM7.34831 14.8997C9.11305 15.8408 9.11299 15.8409 9.11294 15.841C9.11295 15.841 9.11292 15.8411 9.11293 15.841C9.11295 15.841 9.11303 15.8408 9.11318 15.8406C9.11347 15.84 9.11401 15.839 9.1148 15.8375C9.11637 15.8346 9.11893 15.8298 9.12244 15.8233C9.12946 15.8102 9.1403 15.7901 9.15475 15.7633C9.18365 15.7099 9.22694 15.6302 9.28292 15.5283C9.39495 15.3242 9.55737 15.0318 9.75659 14.6827C10.1568 13.9812 10.6975 13.065 11.2712 12.181C11.8583 11.2765 12.427 10.4889 12.8825 9.99459C13.1228 9.7339 13.232 9.6655 13.2126 9.67682C13.1973 9.68571 13.0575 9.76769 12.8166 9.80143C12.5406 9.84009 12.1572 9.80831 11.7858 9.58535L13.8445 6.15581C12.7181 5.4797 11.6318 5.96869 11.2005 6.21974C10.7041 6.50864 10.2744 6.92225 9.94108 7.28391C9.24953 8.03434 8.53289 9.05286 7.91601 10.0032C7.28576 10.9742 6.70375 11.9618 6.28233 12.7004C6.07072 13.0712 5.89757 13.3829 5.77674 13.603C5.71628 13.7131 5.66882 13.8004 5.63607 13.861C5.61969 13.8913 5.60698 13.9149 5.59817 13.9313C5.59376 13.9395 5.59032 13.946 5.58787 13.9505C5.58665 13.9528 5.58568 13.9546 5.58496 13.956C5.58461 13.9566 5.58431 13.9572 5.58408 13.9576C5.58396 13.9579 5.58383 13.9581 5.58378 13.9582C5.58366 13.9584 5.58357 13.9586 7.34831 14.8997ZM11.7858 9.58535C12.3841 9.94451 13.1255 10.4379 13.736 10.8555C14.0371 11.0615 14.2988 11.2439 14.4849 11.3745C14.5779 11.4397 14.6518 11.4919 14.702 11.5275C14.7271 11.5453 14.7463 11.5589 14.7589 11.5679C14.7653 11.5724 14.77 11.5758 14.773 11.5779C14.7745 11.579 14.7756 11.5798 14.7762 11.5802C14.7766 11.5805 14.7768 11.5806 14.7769 11.5807C14.7769 11.5807 14.7769 11.5807 14.7769 11.5807C14.7769 11.5807 14.7769 11.5807 14.7769 11.5807C14.7769 11.5807 14.7769 11.5807 15.939 9.95298C17.1012 8.32528 17.1011 8.32524 17.101 8.3252C17.101 8.32518 17.101 8.32513 17.1009 8.32509C17.1008 8.32501 17.1006 8.32491 17.1005 8.32479C17.1001 8.32455 17.0997 8.32423 17.0991 8.32384C17.098 8.32304 17.0965 8.32194 17.0945 8.32052C17.0905 8.3177 17.0848 8.31365 17.0775 8.30844C17.0629 8.29801 17.0416 8.28292 17.0143 8.2636C16.9598 8.22497 16.8811 8.16939 16.7829 8.10047C16.5867 7.96274 16.3115 7.77099 15.9944 7.55405C15.3683 7.12581 14.5478 6.57798 13.8445 6.15581L11.7858 9.58535ZM15.939 11.953H19.3232V7.95298H15.939V11.953ZM4.89359 17.9485L0.988727 19.2501L2.25364 23.0449L6.1585 21.7432L4.89359 17.9485Z" fill="#F9A828" mask="url(#path-1-inside-1_3777_738)"/>
<circle cx="17.506" cy="4.48501" r="3.16519" stroke="#F9A828" stroke-width="2"/>
</svg>
