<svg width="32" height="32" viewBox="0 0 32 32" fill="none" xmlns="http://www.w3.org/2000/svg">
<path d="M16.414 30.3563C13.5363 30.3563 10.7232 29.503 8.33047 27.9042C5.93774 26.3055 4.07283 24.0331 2.97157 21.3744C1.87032 18.7157 1.58218 15.7902 2.14359 12.9678C2.70501 10.1454 4.09076 7.5528 6.12562 5.51795C8.16047 3.4831 10.753 2.09734 13.5755 1.53593C16.3979 0.974514 19.3234 1.26265 21.9821 2.36391C24.6407 3.46516 26.9131 5.33007 28.5119 7.72281C30.1107 10.1155 30.964 12.9286 30.964 15.8064C30.964 19.6653 29.4311 23.3661 26.7024 26.0948C23.9738 28.8234 20.2729 30.3563 16.414 30.3563Z" stroke="#F9A828" stroke-width="2"/>
<path d="M13.4976 12.891C13.4976 12.3755 13.2928 11.8811 12.9283 11.5166C12.5638 11.1521 12.0694 10.9473 11.5539 10.9473C11.0383 10.9473 10.5439 11.1521 10.1794 11.5166C9.8149 11.8811 9.61011 12.3755 9.61011 12.891" stroke="#F9A828" stroke-width="2"/>
<path d="M23.2164 12.891C23.2164 12.3755 23.0116 11.8811 22.647 11.5166C22.2825 11.1521 21.7881 10.9473 21.2726 10.9473C20.7571 10.9473 20.2627 11.1521 19.8982 11.5166C19.5336 11.8811 19.3289 12.3755 19.3289 12.891" stroke="#F9A828" stroke-width="2"/>
<path d="M10.5828 16.7783C10.5828 18.3249 11.1971 19.8081 12.2907 20.9016C13.3843 21.9952 14.8675 22.6096 16.414 22.6096C17.9606 22.6096 19.4438 21.9952 20.5373 20.9016C21.6309 19.8081 22.2453 18.3249 22.2453 16.7783" stroke="#F9A828" stroke-width="2"/>
</svg>
